0
SECTION
2
HEADER
9
$ACADVER
1
AC1021
9
$DWGCODEPAGE
3
ANSI_950
9
$INSUNITS
70
6
0
ENDSEC
0
SECTION
2
ENTITIES
0
TEXT
5
200
100
AcDbEntity
8
MARK
100
AcDbText
10
4.0000
20
100.0000
30
0.0
40
2.2000
1
（a）
100
AcDbText
0
TEXT
5
201
100
AcDbEntity
8
NAME
100
AcDbText
10
8.0000
20
100.0000
30
0.0
40
2.2000
1
玄關
100
AcDbText
0
TEXT
5
202
100
AcDbEntity
8
CALC
100
AcDbText
10
40.0000
20
100.0000
30
0.0
40
2.2000
1
2.85*3.90+1.10*2.40=13.76㎡
100
AcDbText
0
TEXT
5
203
100
AcDbEntity
8
MARK
100
AcDbText
10
4.0000
20
95.0000
30
0.0
40
2.2000
1
（b）
100
AcDbText
0
TEXT
5
204
100
AcDbEntity
8
NAME
100
AcDbText
10
8.0000
20
95.0000
30
0.0
40
2.2000
1
走廊
100
AcDbText
0
TEXT
5
205
100
AcDbEntity
8
CALC
100
AcDbText
10
40.0000
20
95.0000
30
0.0
40
2.2000
1
1.45*3.525+1.8*2.60=9.79㎡
100
AcDbText
0
TEXT
5
206
100
AcDbEntity
8
MARK
100
AcDbText
10
4.0000
20
90.0000
30
0.0
40
2.2000
1
（c）
100
AcDbText
0
TEXT
5
207
100
AcDbEntity
8
NAME
100
AcDbText
10
8.0000
20
90.0000
30
0.0
40
2.2000
1
儲藏室
100
AcDbText
0
TEXT
5
208
100
AcDbEntity
8
CALC
100
AcDbText
10
40.0000
20
90.0000
30
0.0
40
2.2000
1
1.85*3.90+1.15*2.10=9.63㎡
100
AcDbText
0
TEXT
5
209
100
AcDbEntity
8
MARK
100
AcDbText
10
4.0000
20
85.0000
30
0.0
40
2.2000
1
（d）
100
AcDbText
0
TEXT
5
20A
100
AcDbEntity
8
NAME
100
AcDbText
10
8.0000
20
85.0000
30
0.0
40
2.2000
1
機房
100
AcDbText
0
TEXT
5
20B
100
AcDbEntity
8
CALC
100
AcDbText
10
40.0000
20
85.0000
30
0.0
40
2.2000
1
2.60*3.90=10.14㎡
100
AcDbText
0
TEXT
5
20C
100
AcDbEntity
8
MARK
100
AcDbText
10
4.0000
20
80.0000
30
0.0
40
2.2000
1
（e）
100
AcDbText
0
TEXT
5
20D
100
AcDbEntity
8
NAME
100
AcDbText
10
8.0000
20
80.0000
30
0.0
40
2.2000
1
電氣室
100
AcDbText
0
TEXT
5
20E
100
AcDbEntity
8
CALC
100
AcDbText
10
40.0000
20
80.0000
30
0.0
40
2.2000
1
3.45*3.90=13.46㎡
100
AcDbText
0
TEXT
5
20F
100
AcDbEntity
8
MARK
100
AcDbText
10
4.0000
20
75.0000
30
0.0
40
2.2000
1
（f）
100
AcDbText
0
TEXT
5
210
100
AcDbEntity
8
NAME
100
AcDbText
10
8.0000
20
75.0000
30
0.0
40
2.2000
1
A棟辦公
100
AcDbText
0
TEXT
5
211
100
AcDbEntity
8
CALC
100
AcDbText
10
40.0000
20
75.0000
30
0.0
40
2.2000
1
8.29*7.265=60.23㎡
100
AcDbText
0
TEXT
5
212
100
AcDbEntity
8
MARK
100
AcDbText
10
4.0000
20
70.0000
30
0.0
40
2.2000
1
（g）
100
AcDbText
0
TEXT
5
213
100
AcDbEntity
8
NAME
100
AcDbText
10
8.0000
20
70.0000
30
0.0
40
2.2000
1
B棟辦公
100
AcDbText
0
TEXT
5
214
100
AcDbEntity
8
CALC
100
AcDbText
10
40.0000
20
70.0000
30
0.0
40
2.2000
1
8.29*7.265=60.23㎡
100
AcDbText
0
TEXT
5
215
100
AcDbEntity
8
MARK
100
AcDbText
10
4.0000
20
65.0000
30
0.0
40
2.2000
1
（h）
100
AcDbText
0
TEXT
5
216
100
AcDbEntity
8
NAME
100
AcDbText
10
8.0000
20
65.0000
30
0.0
40
2.2000
1
會議室
100
AcDbText
0
TEXT
5
217
100
AcDbEntity
8
CALC
100
AcDbText
10
40.0000
20
65.0000
30
0.0
40
2.2000
1
8.58*7.265=62.33㎡
100
AcDbText
0
TEXT
5
218
100
AcDbEntity
8
MARK
100
AcDbText
10
4.0000
20
60.0000
30
0.0
40
2.2000
1
（i）
100
AcDbText
0
TEXT
5
219
100
AcDbEntity
8
NAME
100
AcDbText
10
8.0000
20
60.0000
30
0.0
40
2.2000
1
茶水間
100
AcDbText
0
TEXT
5
21A
100
AcDbEntity
8
CALC
100
AcDbText
10
40.0000
20
60.0000
30
0.0
40
2.2000
1
5.56*7.265=40.39㎡
100
AcDbText
0
TEXT
5
21B
100
AcDbEntity
8
MARK
100
AcDbText
10
4.0000
20
55.0000
30
0.0
40
2.2000
1
（j）
100
AcDbText
0
TEXT
5
21C
100
AcDbEntity
8
NAME
100
AcDbText
10
8.0000
20
55.0000
30
0.0
40
2.2000
1
無障礙廁所
100
AcDbText
0
TEXT
5
21D
100
AcDbEntity
8
CALC
100
AcDbText
10
40.0000
20
55.0000
30
0.0
40
2.2000
1
1.785*5.565+1.785*0.72=11.22㎡
100
AcDbText
0
TEXT
5
21E
100
AcDbEntity
8
REF
100
AcDbText
10
52.0000
20
52.4200
30
0.0
40
1.7600
1
（h）（i）（j）
100
AcDbText
0
TEXT
5
21F
100
AcDbEntity
8
MARK
100
AcDbText
10
4.0000
20
50.0000
30
0.0
40
2.2000
1
（k）
100
AcDbText
0
TEXT
5
220
100
AcDbEntity
8
NAME
100
AcDbText
10
8.0000
20
50.0000
30
0.0
40
2.2000
1
大廳
100
AcDbText
0
TEXT
5
221
100
AcDbEntity
8
CALC
100
AcDbText
10
40.0000
20
50.0000
30
0.0
40
2.2000
1
24.565*20.80-62.33-40.39-11.22=397.01㎡
100
AcDbText
0
TEXT
5
222
100
AcDbEntity
8
NAME
100
AcDbText
10
8.0000
20
45.0000
30
0.0
40
2.2000
1
小計
100
AcDbText
0
TEXT
5
223
100
AcDbEntity
8
CALC
100
AcDbText
10
40.0000
20
45.0000
30
0.0
40
2.2000
1
13.76+9.79+9.63+10.14+13.46+60.23+60.23+62.33+40.39+11.22+397.01=688.19㎡
100
AcDbText
0
TEXT
5
224
100
AcDbEntity
8
REF
100
AcDbText
10
52.0000
20
42.4200
30
0.0
40
1.7600
1
（a）（b）（c）（d）（e）（f）（g）
100
AcDbText
0
TEXT
5
225
100
AcDbEntity
8
MARK
100
AcDbText
10
4.0000
20
40.0000
30
0.0
40
2.2000
1
（l）
100
AcDbText
0
TEXT
5
226
100
AcDbEntity
8
NAME
100
AcDbText
10
8.0000
20
40.0000
30
0.0
40
2.2000
1
二樓
100
AcDbText
0
TEXT
5
227
100
AcDbEntity
8
CALC
100
AcDbText
10
40.0000
20
40.0000
30
0.0
40
2.2000
1
47.985*20.80-13.76-9.79-9.63-10.14-13.46-60.23-60.23=820.85㎡
100
AcDbText
0
TEXT
5
228
100
AcDbEntity
8
CALC
100
AcDbText
10
4.0000
20
30.0000
30
0.0
40
2.2000
1
總樓地板面積=1509.04㎡
100
AcDbText
0
TEXT
5
229
100
AcDbEntity
8
CALC
100
AcDbText
10
4.0000
20
26.0000
30
0.0
40
2.2000
1
合計=688.19+820.85=1509.04㎡
100
AcDbText
0
TEXT
5
22A
100
AcDbEntity
8
NOTE
100
AcDbText
10
4.0000
20
22.0000
30
0.0
40
2.2000
1
{\fMSungGBK|b0|i0|c136|p2;\H1.2x;鋼筋混凝土樓版 t=15cm}
100
AcDbText
0
ENDSEC
0
EOF
