0
SECTION
2
HEADER
9
$ACADVER
1
AC1032
9
$DWGCODEPAGE
3
ANSI_950
9
$INSUNITS
70
6
0
ENDSEC
0
SECTION
2
ENTITIES
0
LINE
5
300
100
AcDbEntity
8
L - 地界線
100
AcDbLine
10
260400.0000
20
2737400.0000
30
0.0
11
260520.0000
21
2737400.0000
31
0.0
0
LINE
5
301
100
AcDbEntity
8
L - 地界線
100
AcDbLine
10
260520.0000
20
2737400.0000
30
0.0
11
260520.0000
21
2737480.0000
31
0.0
0
LINE
5
302
100
AcDbEntity
8
L - 地界線
100
AcDbLine
10
260520.0000
20
2737480.0000
30
0.0
11
260400.0000
21
2737480.0000
31
0.0
0
LINE
5
303
100
AcDbEntity
8
L - 地界線
100
AcDbLine
10
260400.0000
20
2737480.0000
30
0.0
11
260400.0000
21
2737400.0000
31
0.0
0
LINE
5
304
100
AcDbEntity
8
L - 建築線
100
AcDbLine
10
260410.0000
20
2737410.0000
30
0.0
11
260560.0000
21
2737410.0000
31
0.0
0
LINE
5
305
100
AcDbEntity
8
L - 建築線
100
AcDbLine
10
260560.0000
20
2737410.0000
30
0.0
11
260560.0000
21
2737533.0000
31
0.0
0
LINE
5
306
100
AcDbEntity
8
L - 建築線
100
AcDbLine
10
260560.0000
20
2737533.0000
30
0.0
11
260470.0000
21
2737533.0000
31
0.0
0
LINE
5
307
100
AcDbEntity
8
NE_GRID
100
AcDbLine
10
260400.0000
20
2737400.0000
30
0.0
11
260400.0000
21
2737600.0000
31
0.0
0
LINE
5
308
100
AcDbEntity
8
NE_GRID
100
AcDbLine
10
260400.0000
20
2737400.0000
30
0.0
11
260600.0000
21
2737400.0000
31
0.0
0
LINE
5
309
100
AcDbEntity
8
NE_GRID
100
AcDbLine
10
260500.0000
20
2737400.0000
30
0.0
11
260500.0000
21
2737600.0000
31
0.0
0
LINE
5
30A
100
AcDbEntity
8
NE_GRID
100
AcDbLine
10
260400.0000
20
2737500.0000
30
0.0
11
260600.0000
21
2737500.0000
31
0.0
0
LINE
5
30B
100
AcDbEntity
8
NE_GRID
100
AcDbLine
10
260600.0000
20
2737400.0000
30
0.0
11
260600.0000
21
2737600.0000
31
0.0
0
LINE
5
30C
100
AcDbEntity
8
NE_GRID
100
AcDbLine
10
260400.0000
20
2737600.0000
30
0.0
11
260600.0000
21
2737600.0000
31
0.0
0
TEXT
5
30D
100
AcDbEntity
8
T - 地籍
100
AcDbText
10
260430.0000
20
2737430.0000
30
0.0
40
3.0000
1
1267
0
TEXT
5
30E
100
AcDbEntity
8
T - 地籍
100
AcDbText
10
260480.0000
20
2737430.0000
30
0.0
40
3.0000
1
1268
0
TEXT
5
30F
100
AcDbEntity
8
T - 地籍
100
AcDbText
10
260430.0000
20
2737460.0000
30
0.0
40
3.0000
1
2-13
0
TEXT
5
310
100
AcDbEntity
8
T - 地籍
100
AcDbText
10
260480.0000
20
2737460.0000
30
0.0
40
3.0000
1
1006-2
0
TEXT
5
311
100
AcDbEntity
8
NE_GRID
100
AcDbText
10
260400.0000
20
2737392.0000
30
0.0
40
2.0000
1
E260400
0
TEXT
5
312
100
AcDbEntity
8
NE_GRID
100
AcDbText
10
260380.0000
20
2737400.0000
30
0.0
40
2.0000
1
N2737400
0
TEXT
5
313
100
AcDbEntity
8
T - 地籍
100
AcDbText
10
260530.6200
20
2737440.0000
30
0.0
40
3.0000
1
地界線
0
TEXT
5
314
100
AcDbEntity
8
T - 地籍
100
AcDbText
10
260508.8500
20
2737420.0000
30
0.0
40
3.0000
1
建築線
0
TEXT
5
315
100
AcDbEntity
8
LEGEND
100
AcDbText
10
0.0000
20
25.0000
30
0.0
40
4.0000
1
北
0
LINE
5
316
100
AcDbEntity
8
LEGEND
100
AcDbLine
10
0.0000
20
0.0000
30
0.0
11
0.0000
21
20.0000
31
0.0
0
LINE
5
317
100
AcDbEntity
8
LEGEND
100
AcDbLine
10
-5.0000
20
15.0000
30
0.0
11
0.0000
21
20.0000
31
0.0
0
LINE
5
318
100
AcDbEntity
8
LEGEND
100
AcDbLine
10
5.0000
20
15.0000
30
0.0
11
0.0000
21
20.0000
31
0.0
0
TEXT
5
319
100
AcDbEntity
8
LEGEND
100
AcDbText
10
-30.0000
20
30.0000
30
0.0
40
3.0000
1
圖例表
0
TEXT
5
31A
100
AcDbEntity
8
LEGEND
100
AcDbText
10
-30.0000
20
-10.0000
30
0.0
40
3.0000
1
圖根點
0
TEXT
5
31B
100
AcDbEntity
8
LEGEND
100
AcDbText
10
-30.0000
20
-20.0000
30
0.0
40
3.0000
1
導線點
0
TEXT
5
31C
100
AcDbEntity
8
LEGEND
100
AcDbText
10
-30.0000
20
-30.0000
30
0.0
40
3.0000
1
結構線
0
LINE
5
31D
100
AcDbEntity
8
LEGEND
100
AcDbLine
10
-32.0000
20
-32.0000
30
0.0
11
32.0000
21
-32.0000
31
0.0
0
LINE
5
31E
100
AcDbEntity
8
LEGEND
100
AcDbLine
10
-32.0000
20
32.0000
30
0.0
11
32.0000
21
32.0000
31
0.0
0
ENDSEC
0
EOF
