0
SECTION
2
HEADER
9
$INSUNITS
70
6
0
ENDSEC
0
SECTION
2
ENTITIES
0
TEXT
5
200
100
AcDbEntity
8
MARK
100
AcDbText
10
4.0000
20
100.0000
30
0.0
40
2.2000
1
ⓐ
100
AcDbText
0
TEXT
5
201
100
AcDbEntity
8
NAME
100
AcDbText
10
8.0000
20
100.0000
30
0.0
40
2.2000
1
??
100
AcDbText
0
TEXT
5
202
100
AcDbEntity
8
CALC
100
AcDbText
10
40.0000
20
100.0000
30
0.0
40
2.2000
1
46.53
100
AcDbText
0
TEXT
5
203
100
AcDbEntity
8
MARK
100
AcDbText
10
4.0000
20
95.0000
30
0.0
40
2.2000
1
ⓑ
100
AcDbText
0
TEXT
5
204
100
AcDbEntity
8
NAME
100
AcDbText
10
8.0000
20
95.0000
30
0.0
40
2.2000
1
??
100
AcDbText
0
TEXT
5
205
100
AcDbEntity
8
CALC
100
AcDbText
10
40.0000
20
95.0000
30
0.0
40
2.2000
1
1.45*3.525+1.8*2.60=9.79m2
100
AcDbText
0
TEXT
5
206
100
AcDbEntity
8
MARK
100
AcDbText
10
4.0000
20
90.0000
30
0.0
40
2.2000
1
ⓒ
100
AcDbText
0
TEXT
5
207
100
AcDbEntity
8
NAME
100
AcDbText
10
8.0000
20
90.0000
30
0.0
40
2.2000
1
???
100
AcDbText
0
TEXT
5
208
100
AcDbEntity
8
CALC
100
AcDbText
10
40.0000
20
90.0000
30
0.0
40
2.2000
1
1.85*3.90+1.15*2.10=9.63m2
100
AcDbText
0
TEXT
5
209
100
AcDbEntity
8
MARK
100
AcDbText
10
4.0000
20
85.0000
30
0.0
40
2.2000
1
ⓓ
100
AcDbText
0
TEXT
5
20A
100
AcDbEntity
8
NAME
100
AcDbText
10
8.0000
20
85.0000
30
0.0
40
2.2000
1
???
100
AcDbText
0
TEXT
5
20B
100
AcDbEntity
8
CALC
100
AcDbText
10
40.0000
20
85.0000
30
0.0
40
2.2000
1
2.60*3.90=10.14m2
100
AcDbText
0
TEXT
5
20C
100
AcDbEntity
8
MARK
100
AcDbText
10
4.0000
20
80.0000
30
0.0
40
2.2000
1
ⓔ
100
AcDbText
0
TEXT
5
20D
100
AcDbEntity
8
NAME
100
AcDbText
10
8.0000
20
80.0000
30
0.0
40
2.2000
1
??????
100
AcDbText
0
TEXT
5
20E
100
AcDbEntity
8
CALC
100
AcDbText
10
40.0000
20
80.0000
30
0.0
40
2.2000
1
3.45*3.90=13.46m2
100
AcDbText
0
TEXT
5
20F
100
AcDbEntity
8
MARK
100
AcDbText
10
4.0000
20
75.0000
30
0.0
40
2.2000
1
ⓕ
100
AcDbText
0
TEXT
5
210
100
AcDbEntity
8
NAME
100
AcDbText
10
8.0000
20
75.0000
30
0.0
40
2.2000
1
A???
100
AcDbText
0
TEXT
5
211
100
AcDbEntity
8
CALC
100
AcDbText
10
40.0000
20
75.0000
30
0.0
40
2.2000
1
8.29*7.265=60.23m2
100
AcDbText
0
TEXT
5
212
100
AcDbEntity
8
MARK
100
AcDbText
10
4.0000
20
70.0000
30
0.0
40
2.2000
1
ⓖ
100
AcDbText
0
TEXT
5
213
100
AcDbEntity
8
NAME
100
AcDbText
10
8.0000
20
70.0000
30
0.0
40
2.2000
1
B???
100
AcDbText
0
TEXT
5
214
100
AcDbEntity
8
CALC
100
AcDbText
10
40.0000
20
70.0000
30
0.0
40
2.2000
1
8.29*7.265=60.23m2
100
AcDbText
0
TEXT
5
215
100
AcDbEntity
8
MARK
100
AcDbText
10
4.0000
20
65.0000
30
0.0
40
2.2000
1
ⓗ
100
AcDbText
0
TEXT
5
216
100
AcDbEntity
8
NAME
100
AcDbText
10
8.0000
20
65.0000
30
0.0
40
2.2000
1
???
100
AcDbText
0
TEXT
5
217
100
AcDbEntity
8
CALC
100
AcDbText
10
40.0000
20
65.0000
30
0.0
40
2.2000
1
8.58*7.265=62.33m2
100
AcDbText
0
TEXT
5
218
100
AcDbEntity
8
MARK
100
AcDbText
10
4.0000
20
60.0000
30
0.0
40
2.2000
1
ⓘ
100
AcDbText
0
TEXT
5
219
100
AcDbEntity
8
NAME
100
AcDbText
10
8.0000
20
60.0000
30
0.0
40
2.2000
1
???
100
AcDbText
0
TEXT
5
21A
100
AcDbEntity
8
CALC
100
AcDbText
10
40.0000
20
60.0000
30
0.0
40
2.2000
1
5.56*7.265=40.39m2
100
AcDbText
0
TEXT
5
21B
100
AcDbEntity
8
MARK
100
AcDbText
10
4.0000
20
55.0000
30
0.0
40
2.2000
1
ⓙ
100
AcDbText
0
TEXT
5
21C
100
AcDbEntity
8
NAME
100
AcDbText
10
8.0000
20
55.0000
30
0.0
40
2.2000
1
?????
100
AcDbText
0
TEXT
5
21D
100
AcDbEntity
8
CALC
100
AcDbText
10
40.0000
20
55.0000
30
0.0
40
2.2000
1
1.785*5.565+1.785*0.72=11.22m2
100
AcDbText
0
TEXT
5
21E
100
AcDbEntity
8
REF
100
AcDbText
10
52.0000
20
52.4200
30
0.0
40
1.7600
1
ⓗ ⓘ ⓙ
100
AcDbText
0
TEXT
5
21F
100
AcDbEntity
8
MARK
100
AcDbText
10
4.0000
20
50.0000
30
0.0
40
2.2000
1
ⓚ
100
AcDbText
0
TEXT
5
220
100
AcDbEntity
8
NAME
100
AcDbText
10
8.0000
20
50.0000
30
0.0
40
2.2000
1
????
100
AcDbText
0
TEXT
5
221
100
AcDbEntity
8
CALC
100
AcDbText
10
40.0000
20
50.0000
30
0.0
40
2.2000
1
24.565*20.80-62.33-40.39-11.22=397.01m2
100
AcDbText
0
TEXT
5
222
100
AcDbEntity
8
NAME
100
AcDbText
10
8.0000
20
45.0000
30
0.0
40
2.2000
1
??
100
AcDbText
0
TEXT
5
223
100
AcDbEntity
8
CALC
100
AcDbText
10
40.0000
20
45.0000
30
0.0
40
2.2000
1
46.53+9.79+9.63+10.14+13.46+60.23+60.23+62.33+40.39+11.22+397.01=720.96m2
100
AcDbText
0
TEXT
5
224
100
AcDbEntity
8
REF
100
AcDbText
10
52.0000
20
42.4200
30
0.0
40
1.7600
1
ⓐ ⓑ ⓒ ⓓ ⓔ ⓕ ⓖ
100
AcDbText
0
TEXT
5
225
100
AcDbEntity
8
MARK
100
AcDbText
10
4.0000
20
40.0000
30
0.0
40
2.2000
1
ⓛ
100
AcDbText
0
TEXT
5
226
100
AcDbEntity
8
NAME
100
AcDbText
10
8.0000
20
40.0000
30
0.0
40
2.2000
1
??
100
AcDbText
0
TEXT
5
227
100
AcDbEntity
8
CALC
100
AcDbText
10
40.0000
20
40.0000
30
0.0
40
2.2000
1
47.985*20.80-46.53-9.79-9.63-10.14-13.46-60.23-60.23=788.08m2
100
AcDbText
0
TEXT
5
228
100
AcDbEntity
8
CALC
100
AcDbText
10
4.0000
20
30.0000
30
0.0
40
2.2000
1
??????????=1509.04m2
100
AcDbText
0
TEXT
5
229
100
AcDbEntity
8
NOTE
100
AcDbText
10
4.0000
20
26.0000
30
0.0
40
2.2000
1
?????(102)????  00055?
100
AcDbText
0
TEXT
5
22A
100
AcDbEntity
8
CALC
100
AcDbText
10
4.0000
20
22.0000
30
0.0
40
2.2000
1
???????=720.96+788.08=1509.04m2
100
AcDbText
0
TEXT
5
22B
100
AcDbEntity
8
CALC
100
AcDbText
10
4.0000
20
18.0000
30
0.0
40
2.2000
1
?????????=720.96+788.08=1509.04m2
100
AcDbText
0
ENDSEC
0
EOF
